<?xml version="1.0" encoding="utf-8"?>
<!-- Generator: Adobe Illustrator 15.0.0, SVG Export Plug-In . SVG Version: 6.00 Build 0)  -->
<!DOCTYPE svg PUBLIC "-//W3C//DTD SVG 1.0//EN" "http://www.w3.org/TR/2001/REC-SVG-20010904/DTD/svg10.dtd">
<svg version="1.0" id="Layer_1" xmlns="http://www.w3.org/2000/svg" xmlns:xlink="http://www.w3.org/1999/xlink" x="0px" y="0px"
	 width="95.521px" height="26px" viewBox="0 0 95.521 26" enable-background="new 0 0 95.521 26" xml:space="preserve">
<path fill="#ED1B35" d="M17.943,0.391c2.521,1.574,3.311,5.386,0.78,8.125C18.321,3.224,13.729,0,9.461,0
	C5.382,0,1.733,2.576,0.445,6.531c-1.867,6.762,2.417,11.865,7.715,14.052c4.699,1.935,8.437,3.435,9.357,5.421
	c2.094-0.793,2.934-5.724,1.324-7.295c2.407,0.517,7.312,0,9.888-4.856C32.616,6.531,25.87-1.746,17.943,0.391z M12.866,15.069
	c0,0-5.52-2.042-5.52-5.097c0-2.237,2.576-2.631,4.218-1.193C13.029,10.06,13.406,11.996,12.866,15.069z"/>
<g>
	<path fill="#FFFFFF" d="M45.319,16.47v-0.818l-0.78-0.125c-0.189-0.026-0.277-0.057-0.377-0.245l-0.775-1.964
		c-0.239-0.616-0.365-0.925-0.768-1.114c1.013-0.403,1.73-1.133,1.73-2.479c0-1.284-0.61-2.536-2.92-2.536h-4.091v0.818l0.806,0.088
		c0.176,0.018,0.201,0.068,0.201,0.258v6.954c0,0.195-0.025,0.234-0.201,0.259l-0.806,0.088v0.818h3.518v-0.818l-0.824-0.101
		c-0.188-0.025-0.201-0.051-0.201-0.257v-2.72h1.089c0.434,0,0.642,0.151,0.793,0.548l0.963,2.429l-0.85,0.113v0.806L45.319,16.47
		L45.319,16.47z M39.833,11.479V8.301h0.855c1.397,0,2.114,0.309,2.114,1.491c0,1.398-0.931,1.687-2.026,1.687H39.833z"/>
	<path fill="#FFFFFF" d="M50.651,14.998c-0.769,0.32-1.252,0.446-1.882,0.446c-1.24,0-1.699-0.705-1.769-1.893h4.135
		c0.025-0.246,0.039-0.58,0.039-0.75c0-2.228-1.095-3.089-2.713-3.089c-1.674,0-3.021,1.094-3.021,3.411
		c0,1.976,0.781,3.505,3.166,3.505c0.931,0,1.749-0.246,2.454-0.604L50.651,14.998z M47.02,12.486
		c0.063-1.171,0.686-1.655,1.416-1.655c0.693,0,1.271,0.396,1.271,1.655H47.02z"/>
	<path fill="#FFFFFF" d="M56.258,16.47v-0.818l-1.524-0.125c-0.195-0.013-0.208-0.057-0.208-0.257v-4.375h2.166V9.843h-2.065
		c-0.101,0-0.101-0.038-0.101-0.131V8.854c0-0.724,0.145-1.182,0.964-1.182c0.522,0,0.768,0.131,0.768,0.799l1.366-0.169
		c-0.007-1.385-0.97-1.656-2.071-1.656c-1.662,0-2.499,0.729-2.499,2.335v0.861H52.06v1.051h0.894c0.101,0,0.101,0.05,0.101,0.126
		v4.285c0,0.195-0.025,0.246-0.2,0.259l-0.782,0.075v0.831H56.258z"/>
	<path fill="#FFFFFF" d="M61.148,16.47v-0.818l-1.202-0.101c-0.195-0.011-0.221-0.05-0.221-0.257v-3.682
		c0.259-0.246,0.806-0.667,1.292-0.667c0.119,0,0.144,0.025,0.157,0.139l0.15,0.798l1.151,0.051v-2.09
		c-0.226-0.081-0.704-0.131-0.994-0.131c-0.862,0-1.46,0.528-1.882,1.082l-0.043-0.018l-0.138-0.932h-1.906l-0.126,0.819
		l0.705,0.245c0.125,0.05,0.164,0.126,0.164,0.265v4.134c0,0.195-0.026,0.234-0.201,0.258l-0.617,0.076v0.831L61.148,16.47
		L61.148,16.47z"/>
	<path fill="#FFFFFF" d="M65.534,7.968c0-0.604-0.357-0.938-0.956-0.938c-0.617,0-0.963,0.334-0.963,0.938
		c0,0.617,0.346,0.962,0.963,0.962C65.177,8.93,65.534,8.584,65.534,7.968z M66.435,16.47v-0.818l-0.762-0.087
		c-0.188-0.024-0.202-0.051-0.202-0.258V9.843h-2.214l-0.126,0.818l0.704,0.245c0.126,0.037,0.164,0.126,0.164,0.271v4.127
		c0,0.189-0.024,0.234-0.201,0.259l-0.767,0.101v0.805H66.435L66.435,16.47z"/>
	<path fill="#FFFFFF" d="M73.42,16.47v-0.818l-0.629-0.087c-0.19-0.024-0.201-0.051-0.201-0.258v-3.297
		c0-1.769-0.692-2.297-2.548-2.297c-1.09,0-2.589,0.208-2.589,1.851l1.386,0.125c0-0.88,0.473-0.938,1.177-0.938
		c0.988,0,1.127,0.441,1.127,1.247v0.655l-1.623,0.125c-1.561,0.132-2.355,0.749-2.355,2.027c0,0.723,0.216,1.825,1.825,1.825
		c1.003,0,1.695-0.385,2.254-0.924l0.037,0.012l0.133,0.755H73.42z M71.142,14.715c-0.384,0.383-1.026,0.768-1.648,0.768
		c-0.528,0-0.819-0.201-0.819-0.818c0-0.617,0.291-0.888,1.252-0.976l1.216-0.101V14.715z"/>
	<path fill="#FFFFFF" d="M81.419,16.47v-0.818l-0.704-0.087c-0.19-0.024-0.202-0.051-0.202-0.258v-3.247
		c0-1.473-0.528-2.347-1.905-2.347c-0.926,0-1.681,0.358-2.399,0.85l-0.05-0.013l-0.101-0.706h-1.895l-0.132,0.818l0.704,0.245
		c0.133,0.037,0.17,0.126,0.17,0.264v4.134c0,0.195-0.025,0.234-0.208,0.259l-0.609,0.075v0.831h3.171v-0.818l-0.681-0.087
		c-0.188-0.024-0.2-0.051-0.2-0.258v-3.694c0.422-0.309,1.101-0.667,1.75-0.667c0.823,0,0.912,0.642,0.912,1.41v2.978
		c0,0.151-0.025,0.232-0.208,0.258l-0.636,0.075v0.806L81.419,16.47L81.419,16.47z"/>
	<path fill="#FFFFFF" d="M88.626,10.774V9.842h-2.331c-0.27-0.081-0.741-0.131-1.2-0.131c-1.832,0-2.832,1.038-2.832,2.46
		c0,0.9,0.407,1.567,1,1.888c-0.232,0.245-0.497,0.566-0.705,0.8c-0.214,0.239-0.32,0.459-0.32,0.731
		c0,0.308,0.169,0.616,0.592,0.792c-0.435,0.409-0.781,0.78-0.781,1.397c0,0.976,0.806,1.58,3.06,1.58
		c2.227,0,3.404-0.794,3.404-2.153c0-1.555-1.09-1.667-3.366-1.787l-1.573-0.076l0.585-0.975c0.244,0.075,0.654,0.114,1.075,0.114
		c1.498,0,2.675-0.819,2.675-2.311c0-0.585-0.226-0.981-0.485-1.315L88.626,10.774z M86.604,12.121c0,0.799-0.592,1.309-1.473,1.309
		c-1.052,0-1.447-0.548-1.447-1.278c0-0.962,0.63-1.403,1.484-1.403C86.063,10.749,86.604,11.24,86.604,12.121z M85.812,16.766
		c0.743,0.05,1.229,0.082,1.229,0.642c0,0.824-1.241,0.924-1.895,0.924c-1.115,0-1.795-0.195-1.795-0.78
		c0-0.333,0.258-0.653,0.491-0.9L85.812,16.766z"/>
	<path fill="#FFFFFF" d="M92.274,16.627c2.253,0,3.247-1.409,3.247-3.569c0-1.951-0.868-3.347-3.121-3.347s-3.315,1.383-3.315,3.518
		C89.085,15.185,89.934,16.627,92.274,16.627z M92.313,15.54c-1.101,0-1.691-0.75-1.691-2.393c0-1.636,0.653-2.316,1.742-2.316
		s1.636,0.68,1.636,2.304C93.999,14.814,93.401,15.54,92.313,15.54z"/>
</g>
</svg>
