<svg id="logosandtypes_com" data-name="logosandtypes com" xmlns="http://www.w3.org/2000/svg" viewBox="0 0 150 150"><defs><style>.cls-1{fill:none;}.cls-2{fill:#ff3921;fill-rule:evenodd;}</style></defs><path class="cls-1" d="M0,0H150V150H0Z" transform="translate(0 0)"/><path id="redLabel" class="cls-2" d="M89.39,17.51c11.53,7.21,15.14,24.64,3.57,37.17C91.11,30.47,70.1,15.73,50.58,15.73A43.2,43.2,0,0,0,9.34,45.6C.8,76.54,20.4,99.88,44.63,109.88c21.5,8.85,38.6,15.71,42.81,24.8,9.58-3.63,13.42-26.19,6-33.37a42.12,42.12,0,0,0,45.23-22.22C156.5,45.6,125.64,7.74,89.39,17.51ZM66.16,84.66S40.91,75.32,40.91,61.35c0-10.24,11.79-12,19.3-5.46C66.91,61.75,68.63,70.6,66.16,84.66Z" transform="translate(0 0)"/></svg>